<svg width="16" height="16" viewBox="0 0 16 16" fill="none" xmlns="http://www.w3.org/2000/svg">
<g clip-path="url(#clip0_1_1109)">
<path d="M8.47139 3.80473C8.73174 3.54438 8.73174 3.12227 8.47139 2.86192C8.21105 2.60157 7.78893 2.60157 7.52859 2.86192L2.86192 7.52859C2.60157 7.78893 2.60157 8.21105 2.86192 8.47139L7.52859 13.1381C7.78893 13.3984 8.21105 13.3984 8.47139 13.1381C8.73174 12.8777 8.73174 12.4556 8.47139 12.1953L4.9428 8.66666L12.6667 8.66666C13.0348 8.66666 13.3333 8.36818 13.3333 7.99999C13.3333 7.6318 13.0348 7.33332 12.6667 7.33332L4.9428 7.33332L8.47139 3.80473Z" fill="#002116"/>
</g>
<defs>
<clipPath id="clip0_1_1109">
<rect width="16" height="16" rx="6" fill="white"/>
</clipPath>
</defs>
</svg>
